<?xml version="1.0" encoding="UTF-8" standalone="yes"?>
<!DOCTYPE svg PUBLIC "-//W3C//DTD SVG 1.0//EN" "http://www.w3.org/TR/2001/REC-SVG-20010904/DTD/svg10.dtd">
<svg height="457" onload="if(self.makeDraggable){makeDraggable(evt)}" width="700" xmlns="http://www.w3.org/2000/svg" xmlns:svg="http://www.w3.org/2000/svg" xmlns:xlink="http://www.w3.org/1999/xlink">
	
	<g>
	<image href="pin.svg" height="20" width="20" y="22.144"	x="194.655" />
	</g>
	
	<g id="mundialis_osm:background" opacity="0.5">
		<image height="457" id="background_map_1" opacity="1" style="mix-blend-mode:normal" width="700" x="0" xlink:href="https://ows.terrestris.de/osm/service?service=WMS&amp;version=1.3.0&amp;request=GetMap&amp;format=image/jpeg&amp;exception=inimage&amp;crs=EPSG:4326&amp;styles=&amp;layers=OSM-WMS&amp;bbox=-45.0270833,168.6466982,-45.0253855,168.6503550&amp;width=700&amp;height=457" y="0" />
	</g>
	<g id="trk1:Scenic" opacity="1">
		<polyline fill="none" id="trk1:p101" points="204.655,42.144 203.933,42.980 201.141,43.882 200.516,43.476 193.712,46.298 147.053,69.727 125.793,79.704 113.695,83.632 92.275,95.933 83.835,118.776 86.066,130.875 93.607,140.174 106.780,141.890 119.536,140.513 144.550,144.350 156.022,150.038 164.077,159.812 164.061,172.768 149.139,191.300 124.558,196.943 102.961,201.999 100.538,207.078 112.877,216.626 137.988,220.869 152.829,221.569 168.313,219.763 197.820,206.717 211.731,197.778 226.220,188.749 254.475,185.680 281.608,196.040 292.085,203.963 317.805,217.461 333.048,218.860 347.393,216.536 361.577,211.660 376.081,208.906 407.851,204.798 423.078,199.900 436.219,190.013 446.134,178.005 454.414,164.755 464.025,152.747 475.304,143.786 487.483,139.091 495.858,139.520 492.264,156.968 481.546,185.815 471.839,198.275 445.958,218.161 432.416,227.257 401.417,237.392 367.417,244.254 314.420,260.145 260.605,286.148 224.038,306.214 161.077,326.529 138.854,330.795 117.707,332.691 84.493,333.233 71.448,339.463 74.401,344.925 82.985,348.356 93.687,350.275 107.646,350.907 140.651,354.202 199.585,357.520 242.570,356.617 263.798,361.267 303.333,371.537 335.246,380.679 345.531,389.098 358.351,393.410 381.248,398.375 391.019,396.502 399.555,393.048 407.883,391.514 419.820,388.421 429.688,384.381 434.052,382.440 443.391,380.047 453.772,379.528 458.650,379.686 498.987,389.008 544.716,385.667 564.820,368.987 577.592,346.008 589.113,320.863 589.113,316.575 587.043,308.516 592.739,298.133 612.571,284.703 631.119,273.485 643.490,273.439 660.000,268.925" stroke="#008000" stroke-linejoin="round" stroke-width="2" />
	</g>
	<g id="trk2:Advanced" opacity="1">
		<polyline fill="none" id="trk2:p79" points=" 181.566,58.735 174.811,64.084 168.265,69.750 160.788,72.887 146.893,79.162 124.141,91.870 85.199,114.375 88.360,127.060 107.021,135.570 135.998,128.234 149.813,125.977 161.446,128.460 166.741,137.759 169.917,148.165 183.508,159.993 190.792,154.395 198.638,147.510 209.292,144.869 222.706,145.298 237.131,149.339 281.656,174.890 279.666,200.239 267.729,207.326 252.710,210.509 220.331,217.280 203.612,224.503 167.029,241.861 107.277,256.330 74.401,250.100 62.752,252.764 55.387,259.422 61.773,267.232 71.095,273.733 85.360,274.388 101.164,275.381 136.977,277.728 156.407,277.299 175.726,274.275 213.384,268.000 227.359,272.785 225.321,291.475 176.111,309.555 128.248,317.726 78.637,324.407 58.789,331.337 40.000,356.595 42.214,376.232 82.824,379.754 124.542,377.271 144.662,378.377 182.144,389.911 200.371,390.408 234.130,382.372 251.058,383.613 268.868,385.758 302.001,389.392 334.220,392.710 344.793,399.436 349.414,406.840 355.126,412.709 367.160,417.200 374.782,416.907 383.623,414.627 403.855,404.357 415.954,401.536 427.907,401.039 449.985,396.434 465.565,387.563 511.053,390.295 545.261,383.794 573.982,358.446 603.120,332.194 605.334,305.695 619.663,292.061 628.311,281.137 656.598,279.218 658.059,276.712 658.059,276.712 658.059,276.712" stroke="#FF0000" stroke-linejoin="round" stroke-width="2" />
	</g>
	<g id="Waypoints" />
	<g class="draggable" id="map:legend" x="6" y="443.200490359074">
		<text fill="#FF0000" font-family="Verdana" font-size="11" font-weight="bold" id="map:legend:trktrk2_label" text-anchor="start" x="6" y="443.200490359074">Advanced</text>
		<text fill="#008000" font-family="Verdana" font-size="11" font-weight="bold" id="map:legend:trktrk1_label" text-anchor="start" x="6" y="432.200490359074">Scenic</text>
		<text fill="#000000" font-family="Verdana" font-size="11" font-weight="bold" id="map:legend:header" text-anchor="start" x="6" y="418.450490359074">Tracks:</text>
	</g>
	<g class="draggable" id="Scale" x="350" y="228.600245179537">
		<line fill="none" id="scale_line" stroke="#000000" stroke-width="1" x1="154.685977836939" x2="545.314022163061" y1="438.200490359074" y2="438.200490359074" />
		<line fill="none" id="scale_end1" stroke="#000000" stroke-width="1" x1="154.685977836939" x2="154.685977836939" y1="436.200490359074" y2="440.200490359074" />
		<line fill="none" id="scale_end2" stroke="#000000" stroke-width="1" x1="545.314022163061" x2="545.314022163061" y1="436.200490359074" y2="440.200490359074" />
		<text fill="#000000" font-family="Verdana" font-size="11" id="scale_text" text-anchor="middle" x="350" y="436.200490359074">0.10 miles</text>
	</g>
	<rect fill="none" height="456" id="image_border" opacity="0" stroke="#000000" stroke-width="1" width="699" x="0.5" y="0.5" />
	<style type="text/css">.draggable { cursor:move; }</style>
	<script type="text/javascript"><![CDATA[
		function makeDraggable(evt) {
			var svg = evt.target; svg.addEventListener('mousedown', startDrag); svg.addEventListener('mousemove', drag); svg.addEventListener('mouseup', endDrag); svg.addEventListener('mouseleave', endDrag); svg.addEventListener('touchstart', startDrag); svg.addEventListener('touchmove', drag); svg.addEventListener('touchend', endDrag); svg.addEventListener('touchleave', endDrag); svg.addEventListener('touchcancel', endDrag); var selectedElement, offset, transform, bbox, minX, maxX, minY, maxY;
			function getMousePosition(evt) { var CTM = svg.getScreenCTM(); if(evt.touches) { evt = evt.touches[0]; } return { x:(evt.clientX-CTM.e)/CTM.a, y:(evt.clientY-CTM.f)/CTM.d }; }
			function startDrag(evt) { if(evt.target.classList && evt.target.classList.contains('draggable')) { selectedElement = evt.target; initialiseDragging(evt); } else if(evt.target.parentNode) { if(evt.target.parentNode.classList && evt.target.parentNode.classList.contains('draggable')) { selectedElement = evt.target.parentNode; initialiseDragging(evt); } else if(evt.target.parentNode.parentNode && evt.target.parentNode.parentNode.classList && evt.target.parentNode.parentNode.classList.contains('draggable')) { selectedElement = evt.target.parentNode.parentNode; initialiseDragging(evt); } } }
			function initialiseDragging(evt) { offset = getMousePosition(evt); var transforms = selectedElement.transform.baseVal; if(transforms.length === 0 || transforms.getItem(0).type !== SVGTransform.SVG_TRANSFORM_TRANSLATE) { var translate = svg.createSVGTransform(); translate.setTranslate(0,0); selectedElement.transform.baseVal.insertItemBefore(translate,0); } transform = transforms.getItem(0); offset.x -= transform.matrix.e; offset.y -= transform.matrix.f; }
			function drag(evt) { if(selectedElement) { evt.preventDefault(); var coord = getMousePosition(evt); var dx = coord.x-offset.x; var dy = coord.y-offset.y; transform.setTranslate(dx, dy); } }
			function endDrag(evt) { selectedElement = false; }
		}
]]></script>
	<!-- 		debugging stuff:
		key = 20220120061826-26203
		min. track = 
		max. track = 
		colorize min = 
		colorize max = 
		colorize range = 0
		upper left (data) = -45.0255340430886,168.646907201037
		lower right (data) = -45.0269347429276,168.650146052241
		upper left (drawing) = -45.0253855067134,168.646698242895
		lower right (drawing) = -45.0270832793027,168.650355010384
		center = -45.0262343930081,168.648526626639
		width,height (pixels) = 700,457.200490359074
		width,height (degrees) = 0.00365676748896249,0.00169777258938097
		scale = 1172, resolution = 0.413 m/pixel
		bgmap = https://ows.terrestris.de/osm/service?service=WMS&version=1.3.0&request=GetMap&format=image/jpeg&exception=inimage&crs=EPSG:4326&styles=&layers=OSM-WMS&bbox=-45.0270833,168.6466982,-45.0253855,168.6503550&width=700&height=457
		input form = https://www.gpsvisualizer.com/map_input?form=svg&units=us
 -->
	<!-- 
	Generated using the Perl SVG Module V2.59
	by Ronan Oger
	Info: http://www.roitsystems.com/
 -->
</svg>